# xmcd CD database file
#
# Track frame offsets:
#	150
#	15127
#	28322
#	38392
#	53085
#	68265
#	84987
#	97892
#	109200
#	126700
#	141585
#	163950
#
# Disc length: 2368 seconds
#
# Revision: 0
# Processed by: cddbd v1.5.1PL0 Copyright (c) Steve Scherf et al.
# Submitted via: CDex 1.51
#
DISCID=97093e0c
DTITLE=Jimmy Rowles - Let'S Get Acquainted
DYEAR=1900
DGENRE=Jazz
TTITLE0=The Cobra
TTITLE1=Cheeta'S For Two
TTITLE2=El Tigre
TTITLE3=Lullaby Of Birdland
TTITLE4=Tea For Two
TTITLE5=All For You
TTITLE6=Body And Soul
TTITLE7=East Of The Sun
TTITLE8=The Blues
TTITLE9=Perdido
TTITLE10=The Blues (Take 1)
TTITLE11=The Blues (Take 2)
EXTD=
EXTT0=
EXTT1=
EXTT2=
EXTT3=
EXTT4=
EXTT5=
EXTT6=
EXTT7=
EXTT8=
EXTT9=
EXTT10=
EXTT11=
PLAYORDER=
